<?xml version="1.0" standalone="no"?>
<!DOCTYPE svg PUBLIC "-//W3C//DTD SVG 20010904//EN"
 "http://www.w3.org/TR/2001/REC-SVG-20010904/DTD/svg10.dtd">
<svg version="1.0" xmlns="http://www.w3.org/2000/svg"
 width="300.000000pt" height="300.000000pt" viewBox="0 0 300.000000 300.000000"
 preserveAspectRatio="xMidYMid meet">
<metadata>
Created by potrace 1.11, written by Peter Selinger 2001-2013
</metadata>
<g transform="translate(0.000000,300.000000) scale(0.100000,-0.100000)"
fill="#000000" stroke="none">
<path d="M1500 1684 c0 -351 -2 -635 -5 -632 -3 3 -16 34 -29 69 -33 87 -354
919 -365 944 -5 11 -14 36 -21 55 -7 19 -16 44 -21 55 -5 11 -17 43 -28 70
l-19 50 -113 3 -114 3 -24 -63 c-57 -149 -164 -425 -172 -443 -5 -11 -85 -216
-178 -455 -93 -239 -192 -492 -219 -563 l-50 -127 112 0 111 0 158 428 c88
235 163 436 168 447 5 11 25 65 45 120 20 55 50 136 66 180 17 44 45 123 63
175 l32 94 18 -54 c10 -30 33 -98 52 -150 19 -52 91 -252 159 -445 215 -599
272 -759 279 -777 6 -16 24 -18 164 -18 l156 0 -1 283 -1 284 82 88 82 88 39
-43 c22 -24 44 -48 49 -54 6 -6 118 -132 250 -281 132 -148 259 -291 284 -317
l45 -48 138 0 c76 0 138 3 138 8 0 4 -19 27 -43 52 -23 25 -71 79 -107 120
-36 41 -67 77 -70 80 -3 3 -55 61 -115 130 -61 69 -116 132 -124 140 -8 8 -75
84 -150 170 -75 85 -142 161 -149 168 -16 18 -15 19 104 142 56 58 116 121
134 140 18 19 101 107 185 195 84 88 187 196 228 240 l75 80 -131 3 -132 3
-49 -53 c-69 -74 -279 -299 -354 -380 -35 -37 -71 -76 -80 -86 -10 -11 -67
-73 -128 -138 -61 -65 -131 -141 -156 -168 l-45 -48 0 433 0 434 -111 3 -112
3 0 -637z"/>
</g>
</svg>
